# File generated by ImageToStl.com - Free Image and 3D model conversion tools

mtllib torso_fixed_link.mtl

o obj1
v -0.1483161 0.1233052 -0.01856917
v -0.1593292 0.09951865 0.4433058
v -0.1483157 0.1233052 0.4433058
v -0.1174655 -0.15535 -0.01856917
v -0.1259489 -0.1500836 -0.01856917
v -0.03506553 -0.15535 -0.01856923
v -0.1274321 -0.1528342 -0.01856917
v -0.1649452 -0.0738821 -0.01856917
v -0.1649452 0.07388192 -0.01856917
v -0.03506547 0.152225 -0.01856923
v -0.03356552 -0.15535 -0.01816731
v -0.1593292 0.09951865 0.4433058
v -0.1350103 0.1458898 0.4433058
v -0.1483157 0.1233052 0.4433058
v -0.1350103 0.1458898 0.4433058
v -0.1350106 0.1458898 -0.01856917
v -0.03506547 0.15535 -0.01856923
v -0.1259489 0.1500836 -0.01856917
v -0.1174654 0.15535 -0.01856917
v -0.1274321 -0.1528342 -0.01856917
v -0.1174651 -0.15535 0.4433058
v -0.1274317 -0.1528342 0.4433058
v -0.1174655 -0.15535 -0.01856917
v -0.1593296 -0.09951871 -0.01856917
v -0.1682877 -0.0723685 -0.01856917
v -0.1350106 0.1458898 -0.01856917
v -0.1593296 0.09951865 -0.01856917
v -0.1483161 0.1233052 -0.01856917
v -0.1682877 0.07236838 -0.01856917
v -0.1593296 0.09951865 -0.01856917
v -0.03246736 0.152225 -0.01706928
v -0.03246742 -0.15535 -0.01706928
v -0.1483161 -0.1233053 -0.01856917
v -0.1350103 -0.1458898 0.4433058
v -0.1483157 -0.1233053 0.4433058
v -0.1274316 0.1528342 0.4433058
v -0.1174651 0.15535 0.4433058
v -0.032467 0.152225 0.4418057
v -0.03206515 -0.15535 0.4403057
v -0.03206509 0.152225 0.4403057
v -0.156432 0.09834724 0.4433058
v -0.1174651 -0.15535 0.4433058
v -0.1593292 -0.09951871 0.4433058
v -0.1274317 -0.1528342 0.4433058
v -0.1350103 -0.1458898 0.4433058
v -0.1483157 -0.1233053 0.4433058
v -0.1593292 -0.09951871 0.4433058
v -0.1593296 -0.09951871 -0.01856917
v -0.1679437 -0.0747621 -0.01856917
v -0.1679434 -0.0747621 0.4433058
v -0.1679437 -0.0747621 -0.01856917
v -0.1455486 -0.1218538 -0.01856917
v -0.1679437 0.07476192 -0.01856917
v -0.1679437 0.07476192 -0.01856917
v -0.1455486 0.1218538 -0.01856917
v -0.03356546 0.152225 -0.01816731
v -0.1174651 0.15535 0.4433058
v -0.1174654 0.15535 -0.01856917
v -0.127432 0.1528342 -0.01856917
v -0.1274316 0.1528342 0.4433058
v -0.127432 0.1528342 -0.01856917
v -0.03506511 -0.15535 0.4433057
v -0.03506511 0.152225 0.4433057
v -0.156432 -0.0983473 0.4433058
v -0.1350107 -0.1458898 -0.01856917
v -0.1350107 -0.1458898 -0.01856917
v -0.1483161 -0.1233053 -0.01856917
v -0.1350107 -0.1458898 -0.01856917
v -0.1350103 -0.1458898 0.4433058
v -0.1679434 0.07476192 0.4433058
v -0.03206545 0.152225 -0.01556926
v -0.03206551 -0.15535 -0.01556926
v -0.03246736 0.152225 -0.01706928
v -0.03246742 -0.15535 -0.01706928
v -0.03356516 -0.15535 0.4429038
v -0.0335651 0.152225 0.4429038
v -0.032467 0.152225 0.4418057
v -0.03246706 -0.15535 0.4418057
v -0.03246706 -0.15535 0.4418057
v -0.1682873 0.07236838 0.4433058
v -0.1682877 0.07236838 -0.01856917
v -0.1682873 -0.0723685 0.4433058
v -0.1682877 -0.0723685 -0.01856917
v -0.03506511 0.15535 0.4433057
v -0.0335651 0.15535 0.4429038
v -0.032467 0.15535 0.4418057
v -0.03506547 0.15535 -0.01856923
v -0.03206509 0.15535 0.4403057
v -0.03246736 0.15535 -0.01706928
v -0.03206545 0.15535 -0.01556926
v -0.03356546 0.15535 -0.01816731
v -0.03506511 0.15535 0.4433057
v -0.0335651 0.15535 0.4429038
v -0.032467 0.15535 0.4418057
v -0.03206509 0.15535 0.4403057
v -0.032467 0.15535 0.4418057
v -0.03246736 0.15535 -0.01706928
v -0.03356546 0.15535 -0.01816731
v -0.03206545 0.15535 -0.01556926
v -0.03246736 0.15535 -0.01706928
v -0.1350103 0.1458898 0.4433058
v -0.1350106 0.1458898 -0.01856917
v -0.1682873 -0.0723685 0.4433058
v -0.1679434 0.07476192 0.4433058
v -0.1682873 0.07236838 0.4433058
v -0.1679434 -0.0747621 0.4433058
v -0.03356552 -0.15535 -0.01816731
v -0.03246742 -0.15535 -0.01706928
v -0.03246706 -0.15535 0.4418057
v -0.03506553 -0.15535 -0.01856923
v -0.03206551 -0.15535 -0.01556926
v -0.03506511 -0.15535 0.4433057
v -0.03206515 -0.15535 0.4403057
v -0.03356516 -0.15535 0.4429038
vn -0.90745 0.42016 0
vn -0 -0 -1
vn -0 -0 -1
vn -0 0 -1
vn 0.25882 0 -0.96593
vn -1E-05 1E-05 1
vn -0.86159 0.5076 0
vn -0.86159 0.5076 0
vn -0 0 -1
vn -0.24474 -0.96959 0
vn -0.24474 -0.96959 0
vn -0 0 -1
vn -0 0 -1
vn -0.90745 0.42016 0
vn 0.70711 -0 -0.70711
vn -0.86159 -0.5076 0
vn -0 0 1
vn -0 0 1
vn 0.96593 -0 0.25882
vn 0 0 1
vn -0 -0 1
vn -0 -0 1
vn -1E-05 -1E-05 1
vn -0.90745 -0.42016 0
vn -0.90745 -0.42016 0
vn -0 -0 -1
vn -0.94446 -0.32863 0
vn -0.94446 -0.32863 0
vn -0 0 -1
vn -0 0 -1
vn -0 0 -1
vn -0.94446 0.32863 0
vn -0 0 -1
vn -0 0 -1
vn -0 0 -1
vn -0 0 -1
vn -0 0 -1
vn 0.7071 0 -0.70711
vn 0.25882 0 -0.96593
vn -0.24474 0.96959 0
vn -0.24474 0.96959 0
vn -0 0 -1
vn -0 0 -1
vn 0 0 1
vn 0 -0 1
vn 0 0 1
vn -0 -0 -1
vn -0 0 -1
vn -0 -0 -1
vn -0 -0 -1
vn -0.67559 -0.73728 0
vn -0.67559 -0.73728 0
vn -0.94446 0.32863 0
vn 0.96593 -0 -0.25882
vn 0.96592 -0 -0.25882
vn 0.25881 0 0.96593
vn 0.25881 0 0.96593
vn 0.7071 0 0.70711
vn 0.96593 -0 0.25882
vn 0.7071 -0 0.70711
vn -1 0 0
vn -0 0 -1
vn 0.25881 0 0.96593
vn 0.7071 0 0.70711
vn 0 1 0
vn 0.96593 0 0.25882
vn -0.98983 -0.14224 0
vn 0.7071 0 -0.70711
vn 0.25882 0 -0.96593
vn 0.96593 0 -0.25882
vn 1 0 -0
vn -0.67559 0.73728 0
vn -0.67559 0.73728 0
vn 0 0 1
vn -0.98983 0.14224 0
vn -0.98983 0.14224 0
vn 1 -0 -0
vn 0 -1 0
vt 0.41194 0
vt 0.44135 0.60017
vt 0.41194 0.60017
vt 0.10506 0.59627
vt 0.11554 0.60311
vt 0.00327 0.59627
vt 0.11737 0.59954
vt 0.16371 0.70213
vt 0.16371 0.89414
vt 0.00327 0.99594
vt 0.0014 0.59627
vt 0.1789 0.92745
vt 0.20893 0.98771
vt 0.1925 0.95836
vt 0.38403 0.60017
vt 0.38403 0
vt 0.00327 1
vt 0.11554 0.99316
vt 0.10506 1
vt 0.99022 0.60017
vt 0.97776 0
vt 0.99022 0
vt 0.97776 0.60017
vt 0.15678 0.66882
vt 0.16784 0.7041
vt 0.12674 0.98771
vt 0.15678 0.92745
vt 0.14317 0.95836
vt 0.16784 0.89217
vt 0.44135 0
vt 0 0.99594
vt 0 0.59627
vt 0.71676 0
vt 0.74467 0.60017
vt 0.71676 0.60017
vt 0.21829 0.99673
vt 0.2306 1
vt 0.00386 0
vt 0.38403 0.00195
vt 0.00386 0.00195
vt 0.18248 0.92593
vt 0.2306 0.59627
vt 0.1789 0.66882
vt 0.21829 0.59954
vt 0.20893 0.60856
vt 0.1925 0.63791
vt 0.68736 0.60017
vt 0.68736 0
vt 0.16742 0.70099
vt 0.65676 0.60017
vt 0.65676 0
vt 0.13975 0.6398
vt 0.47194 0
vt 0.16742 0.89528
vt 0.13975 0.95647
vt 0.0014 0.99594
vt 0.76691 0
vt 0.76691 0.60017
vt 0.75445 0.60017
vt 0.75445 0
vt 0.11737 0.99673
vt 0.33234 0.59627
vt 0.33234 0.99594
vt 0.18248 0.67034
vt 0.12674 0.60856
vt 0.74467 0
vt 0.14317 0.63791
vt 1 0.60017
vt 1 0
vt 0.47194 0.60017
vt 0.00386 0.59432
vt 0.38403 0.59432
vt 0.00386 0.59627
vt 0.38403 0.59627
vt 0.33421 0.59627
vt 0.33421 0.99594
vt 0.33563 0.99594
vt 0.33563 0.59627
vt 0.4749 0.60017
vt 0.4749 0
vt 0.6538 0.60017
vt 0.6538 0
vt 0.33234 1
vt 0.33421 1
vt 0.33563 1
vt 0.86863 0.60017
vt 0.87234 0.0039
vt 0.87184 0.59822
vt 0.87234 0.59627
vt 0.87049 0.59965
vt 0.86863 0
vt 0.87048 0.00052
vt 0.87184 0.00195
vt 0 0.00195
vt 0 0
vt 0 1
vt 0.0014 1
vt 0 0.59432
vt 0.74467 0.60017
vt 0.16784 0.7041
vt 0.16827 0.89528
vt 0.16827 0.70099
vt 0.87419 0.59965
vt 0.87283 0.59822
vt 0.87283 0.00195
vt 0.87604 0.60017
vt 0.87604 0
vt 0.87234 0.0039
vt 0.87419 0.00052
usemtl mat0
f 1/1/1 2/2/1 3/3/1
f 4/4/2 5/5/2 6/6/2
f 7/7/3 5/5/3 4/4/3
f 8/8/4 9/9/4 6/6/4
f 10/10/5 11/11/5 6/6/5
f 12/12/6 13/13/6 14/14/6
f 3/3/7 15/15/7 1/1/7
f 15/15/8 16/16/8 1/1/8
f 17/17/9 18/18/9 19/19/9
f 20/20/10 21/21/10 22/22/10
f 23/23/11 21/21/11 20/20/11
f 8/8/12 24/24/12 25/25/12
f 26/26/13 27/27/13 28/28/13
f 29/29/12 27/27/12 9/9/12
f 1/1/14 30/30/14 2/2/14
f 11/11/15 31/31/15 32/32/15
f 33/33/16 34/34/16 35/35/16
f 12/12/17 36/36/17 13/13/17
f 37/37/18 36/36/18 12/12/18
f 38/38/19 39/39/19 40/40/19
f 37/37/20 12/12/20 41/41/20
f 42/42/21 43/43/21 44/44/21
f 43/43/22 45/45/22 44/44/22
f 45/45/23 43/43/23 46/46/23
f 35/35/24 47/47/24 33/33/24
f 33/33/25 47/47/25 48/48/25
f 24/24/26 49/49/26 25/25/26
f 50/50/27 51/51/27 47/47/27
f 47/47/28 51/51/28 48/48/28
f 52/52/29 24/24/29 8/8/29
f 52/52/30 8/8/30 6/6/30
f 5/5/31 52/52/31 6/6/31
f 30/30/32 53/53/32 2/2/32
f 27/27/33 29/29/33 54/54/33
f 18/18/34 55/55/34 26/26/34
f 55/55/35 27/27/35 26/26/35
f 27/27/36 55/55/36 9/9/36
f 9/9/37 55/55/37 17/17/37
f 18/18/31 17/17/31 55/55/31
f 31/31/38 11/11/38 56/56/38
f 11/11/39 10/10/39 56/56/39
f 57/57/40 58/58/40 59/59/40
f 59/59/41 60/60/41 57/57/41
f 18/18/42 61/61/42 19/19/42
f 18/18/43 26/26/43 61/61/43
f 42/42/44 62/62/44 63/63/44
f 43/43/45 42/42/45 64/64/45
f 37/37/46 64/64/46 42/42/46
f 41/41/46 64/64/46 37/37/46
f 5/5/47 7/7/47 65/65/47
f 52/52/48 5/5/48 65/65/48
f 34/34/16 33/33/16 66/66/16
f 24/24/49 65/65/49 67/67/49
f 52/52/50 65/65/50 24/24/50
f 22/22/51 68/68/51 20/20/51
f 69/69/52 68/68/52 22/22/52
f 53/53/53 70/70/53 2/2/53
f 71/71/54 72/72/54 73/73/54
f 73/73/55 72/72/55 74/74/55
f 63/63/56 75/75/56 76/76/56
f 62/62/57 75/75/57 63/63/57
f 75/75/58 77/77/58 76/76/58
f 39/39/59 38/38/59 78/16/59
f 75/75/60 79/78/60 77/77/60
f 9/9/4 17/17/4 10/10/4
f 9/9/4 10/10/4 6/6/4
f 80/79/61 81/80/61 82/81/61
f 82/81/61 81/80/61 83/82/61
f 8/8/62 25/25/62 29/29/62
f 29/29/62 9/9/62 8/8/62
f 37/37/44 63/63/44 84/83/44
f 42/42/44 63/63/44 37/37/44
f 63/63/63 85/84/63 84/83/63
f 85/84/63 63/63/63 76/76/63
f 85/84/64 77/77/64 86/85/64
f 85/84/64 76/76/64 77/77/64
f 87/86/65 58/58/65 88/87/65
f 57/57/65 88/87/65 58/58/65
f 89/88/65 88/87/65 90/89/65
f 87/86/65 88/87/65 91/90/65
f 89/88/65 91/90/65 88/87/65
f 88/87/65 57/57/65 92/91/65
f 93/92/65 94/93/65 88/87/65
f 93/92/65 88/87/65 92/91/65
f 38/38/66 95/94/66 96/95/66
f 38/38/66 40/40/66 95/94/66
f 82/81/67 51/51/67 50/50/67
f 82/81/67 83/82/67 51/51/67
f 97/96/68 56/56/68 98/97/68
f 31/31/68 56/56/68 97/96/68
f 98/97/69 56/56/69 17/17/69
f 17/17/69 56/56/69 10/10/69
f 99/98/70 71/71/70 100/32/70
f 100/32/70 71/71/70 73/73/70
f 95/94/71 71/71/71 99/98/71
f 71/71/71 95/94/71 40/40/71
f 101/66/72 59/59/72 102/99/72
f 60/60/73 59/59/73 101/66/73
f 103/100/74 104/101/74 105/29/74
f 64/64/74 104/101/74 43/43/74
f 106/102/74 104/101/74 103/100/74
f 41/41/74 12/12/74 104/101/74
f 43/43/74 104/101/74 106/102/74
f 104/101/74 64/64/74 41/41/74
f 81/80/75 80/79/75 70/70/75
f 53/53/76 81/80/76 70/70/76
f 40/40/77 72/72/77 71/71/77
f 39/39/77 72/72/77 40/40/77
f 107/103/78 108/104/78 109/105/78
f 23/23/78 110/106/78 109/105/78
f 107/103/78 109/105/78 110/106/78
f 21/21/78 23/23/78 109/105/78
f 111/89/78 109/105/78 108/104/78
f 112/107/78 21/21/78 109/105/78
f 109/105/78 111/89/78 113/108/78
f 114/109/78 112/107/78 109/105/78
# Vertices: 114, normals: 78, texture coordinates: 109, faces: 116

